<svg width="68" height="68" fill="none" xmlns="http://www.w3.org/2000/svg"><g filter="url(#a)" stroke="#F6F6F6" stroke-width="1.5"><rect x="11.75" y="3.75" width="44.5" height="44.5" rx="19.25"/><path d="M34 36.541v-3.029" stroke-linecap="round" stroke-linejoin="round"/><path clip-rule="evenodd" d="M34 29.688v0a3.901 3.901 0 0 1-3.893-3.91v-4.492c0-2.16 1.743-3.911 3.893-3.911a3.902 3.902 0 0 1 3.893 3.91v4.493A3.9 3.9 0 0 1 34 29.688z" stroke-linecap="round" stroke-linejoin="round"/><path d="M41.667 25.81c0 4.253-3.432 7.702-7.668 7.702-4.234 0-7.666-3.449-7.666-7.703" stroke-linecap="round" stroke-linejoin="round"/></g><defs><filter id="a" x="0" y="0" width="68" height="68" filterUnits="userSpaceOnUse" color-interpolation-filters="sRGB"><feFlood flood-opacity="0" result="BackgroundImageFix"/><feColorMatrix in="SourceAlpha" values="0 0 0 0 0 0 0 0 0 0 0 0 0 0 0 0 0 0 127 0" result="hardAlpha"/><feOffset dy="8"/><feGaussianBlur stdDeviation="5.5"/><feColorMatrix values="0 0 0 0 0 0 0 0 0 0 0 0 0 0 0 0 0 0 0.08 0"/><feBlend in2="BackgroundImageFix" result="effect1_dropShadow_1_178"/><feBlend in="SourceGraphic" in2="effect1_dropShadow_1_178" result="shape"/></filter></defs></svg>