<svg width="68" height="83" viewBox="0 0 68 83" fill="none" xmlns="http://www.w3.org/2000/svg">
<g filter="url(#filter0_d_1_882)">
<rect x="11" y="7.64282" width="46" height="46" rx="20" fill="#F1B488"/>
<path d="M33.9998 41.1845V38.1553" stroke="#F6F6F6" stroke-width="1.5" stroke-linecap="round" stroke-linejoin="round"/>
<path fill-rule="evenodd" clip-rule="evenodd" d="M33.9998 34.3306V34.3306C31.85 34.3306 30.1069 32.5804 30.1069 30.4207V25.9287C30.1069 23.769 31.85 22.0178 33.9998 22.0178C36.1505 22.0178 37.8926 23.769 37.8926 25.9287V30.4207C37.8926 32.5804 36.1505 34.3306 33.9998 34.3306Z" stroke="#F6F6F6" stroke-width="1.5" stroke-linecap="round" stroke-linejoin="round"/>
<path d="M41.6666 30.4518C41.6666 34.7057 38.2347 38.1546 33.9995 38.1546C29.7653 38.1546 26.3333 34.7057 26.3333 30.4518" stroke="#F6F6F6" stroke-width="1.5" stroke-linecap="round" stroke-linejoin="round"/>
<path d="M21.3994 63.9417C21.4352 63.9547 21.4824 63.9726 21.541 63.9954C21.5996 64.0214 21.7038 64.08 21.8535 64.1711C22.0033 64.259 22.1351 64.3616 22.249 64.4788C22.363 64.5959 22.4655 64.7603 22.5566 64.9719C22.651 65.1803 22.6982 65.4032 22.6982 65.6409C22.6982 66.2203 22.4525 66.7151 21.9609 67.1252C21.4727 67.5354 20.8184 67.7405 19.998 67.7405C19.666 67.7405 19.3454 67.7014 19.0361 67.6233C18.7269 67.5419 18.4714 67.4475 18.2695 67.3401C18.071 67.2294 17.8936 67.1171 17.7373 67.0032C17.5843 66.8892 17.472 66.7932 17.4004 66.7151L17.2979 66.593L18.001 65.8948C18.0205 65.9143 18.0498 65.9436 18.0889 65.9827C18.1312 66.0217 18.2158 66.0901 18.3428 66.1877C18.473 66.2854 18.6097 66.3733 18.7529 66.4514C18.8962 66.5263 19.0817 66.5946 19.3096 66.6565C19.5374 66.7151 19.7669 66.7444 19.998 66.7444C20.4993 66.7444 20.8916 66.6321 21.1748 66.4075C21.458 66.1829 21.5996 65.9111 21.5996 65.592C21.5996 65.273 21.458 65.0028 21.1748 64.7815C20.8916 64.5569 20.4993 64.4446 19.998 64.4446H19.1484V63.4436H19.998C20.4049 63.4436 20.724 63.3508 20.9551 63.1653C21.1862 62.9765 21.3018 62.7486 21.3018 62.4817C21.3018 62.2213 21.1862 61.9999 20.9551 61.8176C20.724 61.6353 20.4049 61.5442 19.998 61.5442C19.7051 61.5442 19.417 61.6077 19.1338 61.7346C18.8506 61.8616 18.639 61.9836 18.499 62.1008L18.2988 62.2913L17.6006 61.593C17.6201 61.567 17.6527 61.5312 17.6982 61.4856C17.7471 61.4368 17.848 61.3505 18.001 61.2268C18.154 61.1031 18.3151 60.9973 18.4844 60.9094C18.6536 60.8183 18.8766 60.7353 19.1533 60.6604C19.43 60.5823 19.7116 60.5432 19.998 60.5432C20.7435 60.5432 21.3294 60.7206 21.7559 61.0754C22.1855 61.427 22.4004 61.8665 22.4004 62.3938C22.4004 62.6086 22.3646 62.8088 22.293 62.9944C22.2246 63.1799 22.1416 63.328 22.0439 63.4387C21.9495 63.5494 21.8535 63.6454 21.7559 63.7268C21.6582 63.8049 21.5736 63.8603 21.502 63.8928L21.3994 63.9417ZM27.8008 67.6428H26.7998V67.1448C26.7868 67.1578 26.764 67.179 26.7314 67.2083C26.7021 67.2375 26.6403 67.2864 26.5459 67.3547C26.4548 67.4198 26.3555 67.4801 26.248 67.5354C26.1406 67.5875 26.0055 67.6347 25.8428 67.677C25.68 67.7193 25.5156 67.7405 25.3496 67.7405C24.8613 67.7405 24.4561 67.5989 24.1338 67.3157C23.8115 67.0325 23.6504 66.7086 23.6504 66.344C23.6504 65.9501 23.7741 65.6197 24.0215 65.3528C24.2721 65.0859 24.6139 64.9166 25.0469 64.845L26.7998 64.5422C26.7998 64.2883 26.7054 64.0751 26.5166 63.9026C26.3311 63.7301 26.0918 63.6438 25.7988 63.6438C25.5449 63.6438 25.3138 63.6975 25.1055 63.8049C24.9004 63.9091 24.7588 64.0149 24.6807 64.1223L24.5488 64.2932L23.8994 63.6438C23.9189 63.6178 23.945 63.5852 23.9775 63.5461C24.0133 63.5038 24.0898 63.4322 24.207 63.3313C24.3275 63.2271 24.4544 63.1344 24.5879 63.053C24.7214 62.9716 24.8971 62.9 25.1152 62.8381C25.3366 62.773 25.5645 62.7405 25.7988 62.7405C26.3848 62.7405 26.8649 62.9146 27.2393 63.2629C27.6136 63.608 27.8008 64.0344 27.8008 64.5422V67.6428ZM25.501 66.842C25.9079 66.842 26.2253 66.7216 26.4531 66.4807C26.6842 66.2366 26.7998 65.8899 26.7998 65.4407V65.343L25.2471 65.592C25.068 65.6246 24.9232 65.6978 24.8125 65.8118C24.7018 65.9257 24.6465 66.0689 24.6465 66.2415C24.6465 66.401 24.723 66.5409 24.876 66.6614C25.0322 66.7818 25.2406 66.842 25.501 66.842ZM30.2031 63.7415V67.6428H29.2021V62.843H33.5527V67.6428H32.5518V63.7415H30.2031ZM38.4551 62.843H39.3535V67.6428H38.3525V64.4934L35.8525 67.6428H34.9541V62.843H35.9551V65.9924L38.4551 62.843ZM41.1992 66.9983C40.7044 66.5002 40.457 65.9159 40.457 65.2454C40.457 64.5715 40.7044 63.9856 41.1992 63.4875C41.6973 62.9895 42.2832 62.7405 42.957 62.7405C43.3314 62.7405 43.6797 62.8219 44.002 62.9846C44.3242 63.1441 44.5553 63.3036 44.6953 63.4631L44.9053 63.6926L44.2559 64.342C44.2233 64.29 44.1729 64.2265 44.1045 64.1516C44.0394 64.0735 43.8945 63.9693 43.6699 63.8391C43.4486 63.7089 43.2109 63.6438 42.957 63.6438C42.5501 63.6438 42.1969 63.7984 41.8975 64.1077C41.6012 64.4169 41.4531 64.7961 41.4531 65.2454C41.4531 65.6913 41.6012 66.0689 41.8975 66.3782C42.1969 66.6874 42.5501 66.842 42.957 66.842C43.2109 66.842 43.4486 66.7786 43.6699 66.6516C43.8945 66.5247 44.0557 66.401 44.1533 66.2805L44.3047 66.095L44.9541 66.7444C44.9346 66.7704 44.9053 66.8079 44.8662 66.8567C44.8271 66.9023 44.7425 66.982 44.6123 67.0959C44.4821 67.2066 44.3454 67.3059 44.2021 67.3938C44.0589 67.4784 43.8734 67.5582 43.6455 67.6331C43.4176 67.7047 43.1882 67.7405 42.957 67.7405C42.2832 67.7405 41.6973 67.4931 41.1992 66.9983ZM46.9512 66.7932H48.0498C48.2777 66.7932 48.4681 66.7167 48.6211 66.5637C48.7741 66.4107 48.8506 66.2203 48.8506 65.9924C48.8506 65.7646 48.7741 65.5741 48.6211 65.4211C48.4681 65.2681 48.2777 65.1917 48.0498 65.1917H46.9512V66.7932ZM49.3535 64.8108C49.6855 65.12 49.8516 65.5155 49.8516 65.9973C49.8516 66.4758 49.6855 66.8697 49.3535 67.179C49.0247 67.4882 48.5902 67.6428 48.0498 67.6428H45.9502V62.843H46.9512V64.342H48.0498C48.5902 64.342 49.0247 64.4983 49.3535 64.8108Z" fill="#F1B488"/>
</g>
<defs>
<filter id="filter0_d_1_882" x="0" y="-6" width="68" height="97.2858" filterUnits="userSpaceOnUse" color-interpolation-filters="sRGB">
<feFlood flood-opacity="0" result="BackgroundImageFix"/>
<feColorMatrix in="SourceAlpha" type="matrix" values="0 0 0 0 0 0 0 0 0 0 0 0 0 0 0 0 0 0 127 0" result="hardAlpha"/>
<feOffset dy="4"/>
<feGaussianBlur stdDeviation="5.5"/>
<feColorMatrix type="matrix" values="0 0 0 0 1 0 0 0 0 0.564706 0 0 0 0 0.686275 0 0 0 0.2 0"/>
<feBlend mode="normal" in2="BackgroundImageFix" result="effect1_dropShadow_1_882"/>
<feBlend mode="normal" in="SourceGraphic" in2="effect1_dropShadow_1_882" result="shape"/>
</filter>
</defs>
</svg>
