<svg width="50" height="50" fill="none" xmlns="http://www.w3.org/2000/svg"><path fill-rule="evenodd" clip-rule="evenodd" d="M0 25.015C0 11.215 11.221 0 25 0s25 11.216 25 25.015C50 38.785 38.779 50 25 50S0 38.784 0 25.015zm34.17 2.53a9.96 9.96 0 0 0 .676-.772c.386-.506.579-1.134.579-1.758 0-.702-.217-1.354-.628-1.884a8.98 8.98 0 0 1-.185-.199c-.16-.174-.39-.425-.611-.645-1.979-2.123-7.143-5.596-9.846-6.657-.41-.167-1.448-.53-2.003-.555-.53 0-1.037.12-1.52.362a3.128 3.128 0 0 0-1.351 1.495c-.169.434-.434 1.737-.434 1.76-.266 1.424-.41 3.74-.41 6.296 0 2.439.144 4.655.361 6.102.006.006.027.11.06.27.097.49.302 1.508.52 1.925a3.038 3.038 0 0 0 2.678 1.64h.096c.724-.024 2.245-.65 2.245-.675 2.558-1.061 7.601-4.366 9.628-6.56l.145-.145z" fill="#8C84E2"/></svg>