<svg width="81" height="81" viewBox="0 0 81 81" fill="none" xmlns="http://www.w3.org/2000/svg">
<path fill-rule="evenodd" clip-rule="evenodd" d="M0.083313 40.5233C0.083313 18.2152 18.224 0.083252 40.5 0.083252C62.776 0.083252 80.9167 18.2152 80.9167 40.5233C80.9167 62.7847 62.776 80.9166 40.5 80.9166C18.224 80.9166 0.083313 62.7847 0.083313 40.5233ZM55.3248 44.614C55.7539 44.1851 56.3001 43.5222 56.4171 43.3662C57.0413 42.5474 57.3534 41.5335 57.3534 40.5236C57.3534 39.3889 57.0023 38.3361 56.3391 37.4782C56.2847 37.4239 56.1783 37.3081 56.0396 37.1571C55.7801 36.8747 55.4076 36.4692 55.0517 36.1135C51.8527 32.682 43.5041 27.067 39.1347 25.3513C38.4715 25.0822 36.7939 24.4934 35.8967 24.4544C35.0384 24.4544 34.2191 24.6494 33.4389 25.0393C32.4636 25.5852 31.6833 26.4431 31.2542 27.4569C30.9811 28.1588 30.552 30.2644 30.552 30.3034C30.1229 32.604 29.8888 36.3474 29.8888 40.4807C29.8888 44.4229 30.1229 48.0064 30.474 50.346C30.4836 50.3557 30.5172 50.523 30.5693 50.783C30.7278 51.5732 31.058 53.2196 31.4103 53.8944C32.2685 55.5322 33.9461 56.546 35.7406 56.546H35.8967C37.067 56.507 39.5248 55.4932 39.5248 55.4542C43.6601 53.7385 51.8137 48.3964 55.0907 44.848L55.3248 44.614Z" fill="#F1B488"/>
</svg>
