<svg width="30" height="30" fill="none" xmlns="http://www.w3.org/2000/svg"><path d="M24.75 10.006c.174 0 .334.06.462.16l.1.095.026.03a7.5 7.5 0 0 1-5.513 12.203l-.325.006h-9c-.152 0-.303-.005-.455-.014l2.486 2.483a.75.75 0 0 1 .085.957l-.085.105a.75.75 0 0 1-.957.085l-.105-.085-3.75-3.75a.75.75 0 0 1-.086-.957l.086-.105 3.75-3.75a.75.75 0 0 1 1.147.957l-.085.105-2.456 2.454.21.012.215.003h9a6 6 0 0 0 4.665-9.774.75.75 0 0 1 .585-1.218v-.002zM17.469 3.97a.75.75 0 0 1 .957-.086l.105.086 3.75 3.75.085.105a.75.75 0 0 1 0 .852l-.085.105-3.75 3.75-.105.085a.75.75 0 0 1-.852 0l-.105-.085-.086-.105a.75.75 0 0 1 0-.852l.086-.105 2.455-2.454-.21-.012L19.5 9h-9a6 6 0 0 0-4.658 9.783.751.751 0 1 1-1.201.901 7.5 7.5 0 0 1 5.533-12.178L10.5 7.5h9c.153 0 .304.004.454.013L17.47 5.031l-.086-.105a.75.75 0 0 1 .086-.957z" fill="#F6F6F6"/></svg>