<svg width="38" height="39" fill="none" xmlns="http://www.w3.org/2000/svg"><path d="M14.13 1.005 9.89 8.3l7.344 4.211M4.737 17.614a13.957 13.957 0 0 0 1.684 9.172 14.106 14.106 0 0 0 7.099 6.101 14.224 14.224 0 0 0 9.38.339 14.125 14.125 0 0 0 7.526-5.574 13.965 13.965 0 0 0-1.513-17.525 14.167 14.167 0 0 0-8.37-4.22 14.212 14.212 0 0 0-9.187 1.92" stroke="#3A3A55" stroke-width="2" stroke-linecap="round" stroke-linejoin="round"/><path d="M14.577 16.162h1.02v8.403h-1.318v-6.358h-1.5v-.902c.504-.055.886-.174 1.148-.357.266-.188.482-.45.65-.786zm6.3 2.825c.84 0 1.529.265 2.068.796.539.532.808 1.205.808 2.022 0 .848-.275 1.539-.826 2.074-.55.535-1.275.803-2.174.803-.383 0-.746-.045-1.09-.135a3.918 3.918 0 0 1-.855-.328 4.969 4.969 0 0 1-.58-.387 2.342 2.342 0 0 1-.352-.322l-.123-.147.844-.837c.015.023.043.058.082.105a3.241 3.241 0 0 0 .697.527 3.023 3.023 0 0 0 1.377.328c.48 0 .881-.16 1.201-.48.32-.32.48-.72.48-1.201 0-.48-.16-.88-.48-1.201-.32-.32-.72-.48-1.2-.48a2.25 2.25 0 0 0-.95.193c-.277.129-.469.258-.574.386l-.153.2h-.96l.24-4.74h4.857v1.2h-3.656l-.123 1.981c.32-.238.8-.357 1.441-.357z" fill="#3A3A55"/></svg>